HIERARCHY
ROOT pelvis
{
  OFFSET 0 100 0
  CHANNELS 6 Xposition Yposition Zposition Zrotation Xrotation Yrotation
  JOINT pelvis_right_femur
  {
    OFFSET -10.78128 -3.44521 -0.5502486
    CHANNELS 3 Zrotation Xrotation Yrotation
    JOINT right_femur_tibia
    {
      OFFSET -0.8047443 -44.0398 -0.1307829
      CHANNELS 3 Zrotation Xrotation Yrotation
      JOINT right_tibia_foot
      {
        OFFSET 3.006224 -47.83518 -5
        CHANNELS 3 Zrotation Xrotation Yrotation
        End Site
        {
          OFFSET 0 -5 15
        }
      }
    }
  }
  JOINT pelvis_left_femur
  {
    OFFSET 10.78128 -3.44521 -0.5502486
    CHANNELS 3 Zrotation Xrotation Yrotation
    JOINT left_femur_tibia
    {
      OFFSET 0.8047443 -44.0398 -0.1307829
      CHANNELS 3 Zrotation Xrotation Yrotation
      JOINT left_tibia_foot
      {
        OFFSET -4.370144 -48.10324 -4.275266
        CHANNELS 3 Zrotation Xrotation Yrotation
        End Site
        {
          OFFSET 0 -5 15
        }
      }
    }
  }
  JOINT pelvis_spine1
  {
    OFFSET 0 6.468898 -3.129235
    CHANNELS 3 Zrotation Xrotation Yrotation
    JOINT spine1
    {
      OFFSET 0 23.15396 4.99043
      CHANNELS 3 Zrotation Xrotation Yrotation
      JOINT spine2
      {
        OFFSET 0 20.79997 -5.064912
        CHANNELS 3 Zrotation Xrotation Yrotation
        JOINT neck
        {
          OFFSET 0 14.38658 9.616178
          CHANNELS 3 Zrotation Xrotation Yrotation
          End Site
          {
            OFFSET 0 20 0
          }
        }
      }
      JOINT right_manubrium
      {
        OFFSET -5.722621 16.35077 3.967754
        CHANNELS 3 Zrotation Xrotation Yrotation
        JOINT right_clavicle
        {
          OFFSET -13.16364 1.694482 -4.693211
          CHANNELS 3 Zrotation Xrotation Yrotation
          JOINT right_humerus
          {
            OFFSET -28.5034 -0.3100689 -2.792744
            CHANNELS 3 Zrotation Xrotation Yrotation
            JOINT right_radius
            {
              OFFSET -25.15693 0.02248979 -1.271978
              CHANNELS 3 Zrotation Xrotation Yrotation
              End Site
              {
                OFFSET -15 0 0
              }
            }
          }
        }
      }
      JOINT left_manubrium
      {
        OFFSET 5.722621 16.35077 3.967754
        CHANNELS 3 Zrotation Xrotation Yrotation
        JOINT left_clavicle
        {
          OFFSET 13.16364 1.694482 -4.693211
          CHANNELS 3 Zrotation Xrotation Yrotation
          JOINT left_humerus
          {
            OFFSET 29.39168 -1.063119 -2.237045
            CHANNELS 3 Zrotation Xrotation Yrotation
            JOINT left_radius
            {
              OFFSET 24.59957 -0.9528479 0.9047498
              CHANNELS 3 Zrotation Xrotation Yrotation
              End Site
              {
                OFFSET 15 -0 -0
              }
            }
          }
        }
      }
    }
  }
}
MOTION
Frames: 19
Frame Time: 0.0416666666667
0 103.5113 0 1.656105 -2.049645 0.02982564 2.053016 -11.64095 6.987422 -0 35.45419 -0 -5.563532 -16.49414 -4.057425 -7.004117 12.75019 -24.61746 -0 5.848561 -0 -0.160654 -20.17917 22.63724 -4.110826 -3.787439 3.647407 2.467412 8.285124 -8.020053 0.3456271 23.54824 7.904615 3.970418 -22.82747 8.152061 6.70683 -19.38198 11.52027 86.3192 35.55195 -22.14621 -0 0 15.69071 -9.109204 8.51216 5.665336 4.01549 -18.82513 -3.586712 -100.847 40.21862 29.03002 0 0 -19.31247 -11.89173 16.61311 27.51706
0.2034455 104.1091 1.251778 1.37332 -1.908686 0.02219982 2.348504 -13.23701 6.892403 -0 36.2535 -0 -6.049028 -15.354 -4.124151 -6.83788 12.75861 -23.99294 -0 5.710629 -0 0.1890675 -20.23029 22.42334 -3.986654 -3.509975 3.480265 2.519078 8.454417 -8.191882 0.3310121 23.38757 7.886089 3.959044 -23.07518 8.112754 6.673062 -19.35484 11.57752 86.55515 35.64932 -22.17635 -0 0 15.35568 -9.241635 8.484263 5.835727 4.032813 -19.18296 -3.595546 -99.82068 39.60363 28.09139 0 0 -19.64615 -10.82086 16.58637 26.49899
0.395313 104.5866 2.62667 0.5207915 -1.237148 -0.04113621 3.437491 -18.50209 6.789954 -0 34.68038 -0 -6.678983 -12.89064 -4.099713 -6.250123 12.61707 -23.10957 -0 5.919384 -0 -0.393187 -21.73315 21.47598 -3.401461 -2.547728 3.409726 2.538483 8.466792 -8.351805 0.5915261 22.87263 7.982563 4.223756 -23.76247 8.322291 6.514768 -19.27979 11.51709 86.6823 35.49479 -22.28163 -0 0 15.42329 -9.400974 8.798213 5.760559 4.560957 -19.94253 -3.436246 -99.18654 39.351 27.39751 0 0 -20.63637 -10.02045 16.62849 26.25093
0.5760626 104.8609 4.159744 -0.05654103 -0.5480973 -0.1287691 4.295047 -22.73723 6.874196 -0 31.609 -0 -6.790242 -11.37944 -4.022969 -5.797974 12.61059 -22.75008 -0 6.293491 -0 -1.256125 -23.31859 20.6611 -2.969062 -1.781912 3.494192 2.516554 8.223122 -8.314548 0.9426007 22.43856 8.071607 4.496019 -24.24067 8.653385 6.350922 -19.08776 11.33958 86.56288 35.31407 -22.30009 -0 0 15.71144 -9.326376 9.184084 5.449403 5.185392 -20.34897 -3.153816 -99.05069 39.40718 27.03602 0 0 -21.42933 -9.697728 16.70998 26.3229
0.7326666 104.9093 5.977094 -0.527436 0.2620993 -0.2064253 5.052216 -26.91816 6.902272 -0 27.68821 -0 -6.797813 -9.701937 -3.91072 -5.368811 12.81697 -22.31747 -0 6.765809 -0 -2.271924 -24.93052 19.64032 -2.622103 -1.042394 3.543081 2.493932 7.86434 -8.237295 1.314196 21.98472 8.167898 4.776681 -24.66331 9.016055 6.17152 -18.7059 11.10802 86.45726 35.25596 -22.33884 -0 0 15.77963 -9.290807 9.670974 5.146828 5.861139 -20.69586 -2.825636 -98.51351 39.29542 26.19181 0 0 -22.3725 -9.129067 16.73854 26.01195
0.8479669 104.7484 8.215097 -0.864142 1.187265 -0.2110305 5.641513 -30.65639 6.771714 -0 23.34209 -0 -6.749471 -7.758714 -3.750936 -4.98613 13.24353 -21.75127 -0 7.371148 -0 -3.408515 -26.30766 18.3759 -2.366883 -0.4126619 3.502586 2.488331 7.441812 -8.160711 1.627606 21.52743 8.288137 5.0472 -25.0468 9.346534 6.023337 -18.14714 10.87432 86.42983 35.40887 -22.44455 -0 0 15.51384 -9.370092 10.2486 4.9576 6.487486 -20.96345 -2.514607 -97.56284 38.91698 24.92564 0 0 -23.36841 -8.312267 16.66372 25.29965
0.9007098 104.4313 11.02462 -1.087223 2.176536 -0.06321763 6.029231 -33.64258 6.344076 -0 19.09193 -0 -6.697986 -5.532884 -3.578995 -4.643695 13.92059 -20.90629 -0 8.167444 -0 -4.639568 -27.14302 16.78465 -2.160072 0.05546081 3.293786 2.524777 7.002847 -8.133704 1.806817 21.10117 8.409536 5.235735 -25.39873 9.567953 5.887072 -17.42888 10.68276 86.58771 35.69369 -22.64276 -0 0 14.78828 -9.606073 10.82217 4.984121 6.950111 -21.12684 -2.288953 -96.15059 38.13111 23.24345 0 0 -24.30165 -7.188571 16.40333 24.1267
0.8721112 104.0583 14.52857 -1.263606 3.129626 0.3018238 6.261946 -35.44772 5.568015 -0 15.58472 -0 -6.674785 -3.271136 -3.444225 -4.313498 14.78518 -19.73725 -0 9.398394 -0 -5.973199 -27.05561 14.85715 -1.901769 0.3039287 2.87184 2.623937 6.601784 -8.192342 1.783915 20.7621 8.502831 5.269324 -25.72212 9.606468 5.757946 -16.6238 10.58611 86.98185 35.96583 -22.93467 -0 0 13.60917 -9.988912 11.28483 5.278143 7.117093 -21.12645 -2.219519 -94.5335 36.94435 21.46426 0 0 -24.91857 -5.91766 15.92889 22.70565
0.7556713 103.785 18.78063 -1.521684 3.884803 0.8906618 6.523976 -35.72169 4.563917 -0 13.54486 -0 -6.72865 -1.447206 -3.401671 -3.928493 15.64212 -18.28685 -0 11.59759 -0 -7.420637 -25.65586 12.68837 -1.443666 0.3194299 2.25148 2.79303 6.304065 -8.349052 1.53437 20.57326 8.530956 5.095214 -26.00282 9.414981 5.649137 -15.84256 10.62942 87.57334 36.04969 -23.26583 -0 0 12.1198 -10.45964 11.55576 5.816685 6.87527 -20.91189 -2.3471 -93.11349 35.52904 20.04498 0 0 -24.91916 -4.77264 15.30341 21.41413
0.5704207 103.8127 23.7342 -1.991781 4.248726 1.602607 7.049064 -34.35254 3.628422 -0 13.45461 -0 -6.922877 -0.6286386 -3.461394 -3.411293 16.10755 -16.70248 -0 15.58262 -0 -8.969432 -22.71191 10.5095 -0.6608823 0.1683337 1.565863 3.007282 6.182208 -8.566562 1.113381 20.56849 8.476625 4.73592 -26.19592 9.01388 5.613267 -15.20403 10.82745 88.19427 35.87471 -23.51856 -0 0 10.60154 -10.95821 11.6736 6.501595 6.201608 -20.49556 -2.637638 -92.24472 34.18865 19.37212 0 0 -24.15045 -4.016566 14.6672 20.6431
0.369348 104.3362 29.24941 -2.668599 4.072594 2.215863 7.849558 -31.512 3.045991 -0 15.07243 -0 -7.275983 -1.183495 -3.549725 -2.768677 15.64973 -15.16062 -0 22.12604 -0 -10.52305 -18.37832 8.650439 0.4094009 -0.003811647 1.085064 3.201021 6.297691 -8.744644 0.6569437 20.71981 8.360857 4.310145 -26.21593 8.506966 5.715537 -14.77976 11.14342 88.60886 35.58164 -23.55728 -0 0 9.360247 -11.50048 11.82268 7.218284 5.228704 -19.99716 -2.96328 -91.95997 33.13416 19.45811 0 0 -22.86225 -3.673413 14.10341 20.47708
0.2276994 105.4568 35.13596 -3.302168 3.341075 2.465099 8.552101 -27.50129 2.869249 -0 17.22667 -0 -7.663854 -2.947004 -3.531285 -2.183666 13.75279 -13.74342 -0 31.33866 -0 -11.84651 -13.3456 7.44035 1.469565 -0.03821335 1.132427 3.283535 6.682374 -8.746844 0.3192352 20.94716 8.229058 3.982562 -25.96192 8.03054 5.963607 -14.5732 11.50315 88.65809 35.45508 -23.30359 -0 0 8.568489 -12.21484 12.21599 7.912559 4.232481 -19.61954 -3.164859 -91.90342 32.26933 19.86934 0 0 -21.71003 -3.438784 13.52201 20.51937
0.1995863 107.1163 41.2002 -3.485439 2.167271 2.202932 8.644769 -22.57554 2.917582 -0 18.3871 -0 -7.815223 -5.148444 -3.304286 -1.937691 10.16716 -12.40592 -0 42.18822 -0 -12.60292 -8.709106 7.116738 2.060969 0.138942 1.898119 3.179752 7.3247 -8.466184 0.1882419 21.18627 8.099625 3.85776 -25.36724 7.655774 6.260507 -14.5605 11.84388 88.34851 35.66057 -22.74312 -0 0 8.211098 -13.25889 12.89501 8.595863 3.508832 -19.5276 -3.168405 -91.62593 31.27059 20.05111 0 0 -21.2937 -2.918377 12.75425 20.1546
0.2717673 109.1128 47.2703 -2.938967 0.6913877 1.5135 7.93274 -16.95048 2.987301 -0 17.71022 -0 -7.484471 -6.831578 -2.896896 -2.153934 5.075653 -11.08269 -0 52.60182 -0 -12.52721 -5.508115 7.790864 1.858634 0.4752577 3.282876 2.87034 8.152736 -7.883085 0.2547586 21.44349 7.932209 3.911482 -24.4354 7.34779 6.452373 -14.74513 12.14792 87.76581 36.05223 -21.83272 -0 0 8.212707 -14.67313 13.66004 9.281916 3.214888 -19.71226 -3.034277 -91.0215 29.91353 19.80243 0 0 -21.61095 -2.016747 11.75815 19.08249
0.373458 111.1745 53.20487 -1.752428 -0.951895 0.6571742 6.699012 -10.93209 3.01257 -0 15.50016 -0 -6.648304 -7.55289 -2.460896 -2.625722 -0.9946382 -9.751506 -0 60.12978 -0 -11.61429 -4.19888 9.413606 0.920916 0.8618344 4.924121 2.403067 9.024567 -7.074824 0.4430935 21.75699 7.668586 4.019918 -23.25118 7.034201 6.422012 -15.17213 12.42481 86.9112 36.28219 -20.42192 -0 0 8.618918 -16.33558 14.22145 9.968098 3.302914 -19.97981 -2.883499 -90.38596 28.28087 19.38682 0 0 -22.07579 -1.014138 10.66422 17.53863
0.4431711 113.0231 58.91041 -0.3633278 -2.556675 -0.1129734 5.461789 -4.979088 3.027524 -0 12.69501 -0 -5.519553 -7.720908 -2.134816 -2.896942 -7.431383 -8.360717 -0 62.80324 -0 -10.14422 -4.4633 11.70745 -0.3252182 1.233699 6.392293 1.870495 9.765551 -6.186787 0.6550073 22.1068 7.303361 4.04559 -21.97927 6.693853 6.127518 -15.90865 12.6744 85.68557 36.06359 -18.33082 -0 0 9.633383 -18.07081 14.40439 10.68905 3.588428 -20.09176 -2.799312 -90.05807 26.65769 19.22997 0 0 -22.07039 -0.2684422 9.640516 16.02898
0.4818744 114.4164 64.37369 0.6883919 -3.835899 -0.7110722 4.649708 0.3972661 3.0593 -0 10.12649 -0 -4.398621 -8.232395 -1.917442 -2.493863 -13.70249 -6.779927 -0 59.85073 -0 -8.548325 -5.478242 14.1748 -1.330359 1.577425 7.396477 1.369551 10.24681 -5.386529 0.8051976 22.38624 6.901197 3.907602 -20.83173 6.370316 5.584755 -17.00149 12.87202 84.04821 35.31022 -15.54865 -0 0 11.46431 -19.77868 14.22617 11.5335 3.874038 -19.92069 -2.795711 -90.141 25.28973 19.62125 0 0 -21.38281 0.05833541 8.770202 14.96979
0.5442465 115.1964 69.68001 1.043247 -4.545868 -1.225815 4.414698 4.847143 3.098088 -0 8.227997 -0 -3.495386 -9.759061 -1.693272 -1.183661 -19.35446 -4.908873 -0 52.02352 -0 -7.23197 -6.400485 16.27485 -1.715349 1.856577 7.879664 0.9603567 10.43706 -4.800759 0.8531043 22.46502 6.55412 3.610665 -19.99158 6.129454 4.852192 -18.41425 12.97531 82.13724 34.12258 -12.34369 -0 0 14.11727 -21.45993 13.84471 12.57469 4.040884 -19.49048 -2.835233 -90.52885 24.26086 20.62077 0 0 -20.19212 0.02361982 8.052147 14.52437
0.6920286 115.3322 74.99332 0.7020635 -4.618158 -1.793681 4.585881 8.356726 3.130411 -0 7.163443 -0 -2.804648 -12.25227 -1.352472 0.8183674 -23.99113 -2.882468 -0 41.37963 -0 -6.41897 -6.751209 17.67122 -1.455186 1.96865 7.998744 0.641685 10.38687 -4.454219 0.8231326 22.28146 6.328947 3.236571 -19.53202 6.022334 4.029117 -19.98079 12.93915 80.22453 32.72353 -9.173222 -0 0 17.29612 -23.15133 13.45885 13.78564 4.075413 -18.90019 -2.856049 -91.06243 23.53684 22.09376 0 0 -18.79758 -0.2241723 7.469963 14.6258
